<?xml version="1.0" encoding="UTF-8" standalone="no"?>
<svg xmlns="http://www.w3.org/2000/svg" xmlns:xlink="http://www.w3.org/1999/xlink" xmlns:serif="http://www.serif.com/" width="100%" height="100%" viewBox="0 0 757 210" version="1.1" xml:space="preserve" style="fill-rule:evenodd;clip-rule:evenodd;stroke-linejoin:round;stroke-miterlimit:2;">
    <g transform="matrix(5.55556,0,0,5.55556,153.722,12.2778)">
        <path d="M0,17.476C-3.247,17.476 -4.751,15.892 -4.751,12.54L-4.751,6.546L-6.31,6.546L-6.31,3.431L-4.751,3.431L-4.751,0.58C-3.696,0.342 -2.297,0.079 -1.188,0L-1.188,3.431L2.376,3.431C2.376,4.435 2.323,5.465 2.191,6.546L-1.188,6.546L-1.188,12.75C-1.188,14.018 -0.633,14.202 0.554,14.202C1.214,14.202 2.112,13.992 2.535,13.78C2.745,14.678 2.904,15.787 3.009,16.816C2.27,17.186 0.765,17.476 0,17.476" style="fill:black;fill-rule:nonzero;"></path>
    </g>
    <g transform="matrix(5.55556,0,0,5.55556,26.9833,7.58333)">
        <path d="M0,18.321C-1.504,18.321 -3.379,18.137 -4.857,17.503C-4.699,16.288 -4.382,15.1 -4.092,14.15C-2.798,14.705 -0.95,15.047 0.476,15.047C1.927,15.047 2.561,14.361 2.561,13.172C2.561,10.217 -4.778,10.771 -4.778,5.332C-4.778,1.847 -1.848,0 2.059,0C3.195,0 4.541,0.105 5.835,0.448C5.782,1.452 5.623,2.692 5.386,3.775C4.171,3.484 2.429,3.274 1.294,3.274C-0.105,3.274 -0.739,3.933 -0.739,5.095C-0.739,7.814 6.574,7.629 6.574,12.804C6.574,16.526 3.828,18.321 0,18.321" style="fill:black;fill-rule:nonzero;"></path>
    </g>
    <g transform="matrix(5.55556,0,0,5.55556,181.294,31.3394)">
        <path d="M0,13.781L-0.316,10.824L6.178,3.115L0.529,3.115C0.396,2.06 0.291,0.977 0.291,0L10.139,0L10.454,2.957L3.96,10.666L10.217,10.666C10.429,11.564 10.534,12.857 10.56,13.781L0,13.781" style="fill:black;fill-rule:nonzero;"></path>
    </g>
    <g transform="matrix(5.55556,0,0,5.55556,572.456,28.1783)">
        <path d="M0,10.918C-0.421,11.13 -1.319,11.34 -1.98,11.34C-3.164,11.34 -3.719,11.156 -3.721,9.9L-3.721,-3.696C-4.857,-3.696 -6.256,-3.591 -7.286,-3.459L-7.286,9.991L-7.277,9.991C-7.183,13.125 -5.676,14.614 -2.534,14.614C-1.768,14.614 -0.264,14.324 0.475,13.954C0.37,12.925 0.212,11.816 0,10.918" style="fill:black;fill-rule:nonzero;"></path>
    </g>
    <g transform="matrix(5.55556,0,0,5.55556,495.85,7.64444)">
        <path d="M0,18.005L0,8.659C0,7.762 -0.185,7.075 -1.874,7.075C-2.825,7.075 -3.591,7.366 -4.276,7.788L-4.276,18.005L-7.841,18.005L-7.841,0.237C-6.811,0.105 -5.412,0 -4.276,0L-4.276,5.517L-4.093,5.517C-2.851,4.356 -1.821,3.96 -0.476,3.96C1.954,3.96 3.564,5.359 3.564,8.237L3.564,18.005L0,18.005" style="fill:black;fill-rule:nonzero;"></path>
    </g>
    <g transform="matrix(5.55544,0.0350671,0.0350671,-5.55544,84.6556,22.8826)">
        <path d="M0.013,-0C-1.307,-0.008 -1.973,0.965 -1.98,2.021C-1.986,3.076 -1.36,4.11 0.013,4.119C1.36,4.128 1.999,3.128 2.006,2.047C2.013,0.964 1.359,0.008 0.013,-0" style="fill:black;fill-rule:nonzero;"></path>
    </g>
    <g transform="matrix(5.55556,0,0,5.55556,353.794,109.444)">
        <path d="M0,-14.375C-1.307,-14.375 -2.259,-14.019 -2.567,-12.142L-3.767,-4.513L-3.775,-4.513C-3.857,-4.892 -4.154,-5.679 -4.323,-6.31L-6.513,-14.097L-9.972,-14.097L-12.646,-4.487C-12.665,-4.825 -12.773,-5.348 -12.863,-5.775L-13.882,-11.861C-14.192,-13.738 -14.728,-14.375 -16.781,-14.375C-18.23,-14.375 -19.062,-13.429 -19.062,-12.051L-19.062,-10.981L-18.088,-10.981C-17.546,-10.981 -17.322,-10.865 -17.2,-10.322C-17.18,-10.209 -17.16,-10.098 -17.14,-9.986L-17.068,-9.533L-17.057,-9.52C-16.491,-6.359 -15.499,-2.198 -15.175,-1.239C-15.107,-1.038 -14.797,0 -13.221,-0.007C-11.381,-0.014 -11.076,-1.137 -11.05,-1.233C-10.992,-1.447 -8.916,-8.447 -8.916,-8.447C-8.784,-8.87 -8.652,-9.477 -8.573,-10.058L-8.388,-10.058C-8.335,-9.503 -8.203,-8.87 -8.071,-8.473L-5.9,-1.236C-5.9,-1.236 -5.672,-0.014 -3.837,-0.014C-2.082,-0.014 -1.77,-1.236 -1.77,-1.236C-0.804,-4.553 -0.325,-6.735 0.258,-9.806L0.264,-9.813L0.399,-10.522C0.518,-11.139 0.736,-11.262 1.306,-11.262L2.281,-11.262L2.281,-12.332C2.281,-13.71 1.449,-14.375 0,-14.375" style="fill:black;fill-rule:nonzero;"></path>
    </g>
    <g transform="matrix(5.55556,0,0,5.55556,756.367,194.478)">
        <path d="M0,-6.969C-0.157,-7.021 -0.395,-7.035 -0.541,-7.035C-0.976,-7.035 -1.452,-6.955 -2.23,-6.058L-2.283,-6.058L-2.283,-6.929C-2.586,-6.929 -3.049,-6.903 -3.313,-6.85L-3.313,-0.012L-2.283,-0.012L-2.283,-5.213C-1.65,-5.886 -1.174,-5.966 -0.699,-5.966C-0.461,-5.966 -0.251,-5.939 -0.106,-5.9C-0.053,-6.23 0,-6.639 0,-6.969M-6.929,-1.306C-7.377,-0.976 -8.065,-0.739 -8.658,-0.739C-9.45,-0.739 -9.781,-1.055 -9.781,-1.807C-9.781,-2.666 -9.45,-3.022 -8.421,-3.062L-6.929,-3.115L-6.929,-1.306ZM-4.791,-0.884L-5.557,-0.884C-5.847,-0.884 -5.939,-1.016 -5.939,-1.332L-5.939,-6.401C-6.507,-6.837 -7.511,-7.035 -8.381,-7.035C-9.055,-7.035 -9.569,-6.942 -10.164,-6.77C-10.151,-6.467 -10.097,-6.071 -10.031,-5.82C-9.649,-5.992 -8.989,-6.111 -8.407,-6.111C-7.866,-6.111 -7.246,-5.992 -6.929,-5.807L-6.929,-3.867L-8.381,-3.801C-10.004,-3.721 -10.837,-3.18 -10.837,-1.728C-10.837,-0.475 -10.019,0.12 -8.843,0.12C-8.157,0.12 -7.537,-0.065 -6.877,-0.593L-6.838,-0.593C-6.613,-0.025 -6.15,0.12 -5.596,0.12C-5.121,0.12 -4.791,-0.092 -4.791,-0.593L-4.791,-0.884ZM-13.291,-2.573C-13.291,-1.412 -13.964,-0.792 -15.245,-0.792C-15.602,-0.792 -16.103,-0.817 -16.671,-0.884L-16.671,-4.157L-15.047,-4.157C-13.952,-4.157 -13.291,-3.577 -13.291,-2.573M-13.556,-6.626C-13.556,-5.609 -14.164,-4.989 -15.141,-4.989L-16.671,-4.989L-16.671,-8.051C-16.103,-8.104 -15.681,-8.13 -15.285,-8.13C-14.164,-8.13 -13.556,-7.589 -13.556,-6.626M-12.143,-2.52C-12.143,-3.629 -12.764,-4.316 -13.754,-4.632L-13.754,-4.712C-13.054,-5.028 -12.474,-5.715 -12.474,-6.692C-12.474,-8.342 -13.608,-9.002 -15.364,-9.002C-16.077,-9.002 -16.988,-8.922 -17.74,-8.817L-17.74,-0.078C-16.816,0.04 -15.865,0.107 -15.258,0.107C-13.556,0.107 -12.143,-0.632 -12.143,-2.52M-22.688,-9.675L-23.533,-9.675L-23.533,2.706L-22.688,2.706L-22.688,-9.675ZM-27.49,-0.131C-27.503,-0.435 -27.569,-0.792 -27.647,-1.055C-27.912,-0.923 -28.335,-0.844 -28.651,-0.844C-29.337,-0.844 -29.588,-1.095 -29.588,-1.966L-29.588,-6.019L-27.925,-6.019C-27.885,-6.296 -27.859,-6.626 -27.859,-6.903L-29.588,-6.903L-29.588,-8.579C-29.879,-8.566 -30.354,-8.487 -30.605,-8.407L-30.605,-6.903L-31.45,-6.903L-31.45,-6.019L-30.605,-6.019L-30.605,-2.045C-30.605,-0.58 -30.089,0.12 -28.717,0.12C-28.348,0.12 -27.832,0.027 -27.49,-0.131M-33.324,-0.012L-33.324,-4.962C-33.324,-6.547 -34.221,-7.035 -35.264,-7.035C-36.016,-7.035 -36.676,-6.837 -37.349,-6.256L-37.403,-6.256L-37.403,-6.929C-37.706,-6.929 -38.169,-6.903 -38.432,-6.85L-38.432,-0.012L-37.403,-0.012L-37.403,-5.504C-36.836,-5.9 -36.281,-6.097 -35.555,-6.097C-34.67,-6.097 -34.341,-5.635 -34.341,-4.936L-34.341,-0.012L-33.324,-0.012ZM-42.049,-1.306C-42.497,-0.976 -43.185,-0.739 -43.778,-0.739C-44.57,-0.739 -44.901,-1.055 -44.901,-1.807C-44.901,-2.666 -44.57,-3.022 -43.54,-3.062L-42.049,-3.115L-42.049,-1.306ZM-39.911,-0.884L-40.675,-0.884C-40.966,-0.884 -41.059,-1.016 -41.059,-1.332L-41.059,-6.401C-41.626,-6.837 -42.629,-7.035 -43.501,-7.035C-44.174,-7.035 -44.689,-6.942 -45.283,-6.77C-45.27,-6.467 -45.217,-6.071 -45.151,-5.82C-44.767,-5.992 -44.108,-6.111 -43.527,-6.111C-42.986,-6.111 -42.366,-5.992 -42.049,-5.807L-42.049,-3.867L-43.501,-3.801C-45.124,-3.721 -45.956,-3.18 -45.956,-1.728C-45.956,-0.475 -45.137,0.12 -43.962,0.12C-43.276,0.12 -42.656,-0.065 -41.996,-0.593L-41.956,-0.593C-41.732,-0.025 -41.27,0.12 -40.716,0.12C-40.24,0.12 -39.911,-0.092 -39.911,-0.593L-39.911,-0.884ZM-46.682,-6.969C-46.84,-7.021 -47.078,-7.035 -47.223,-7.035C-47.659,-7.035 -48.134,-6.955 -48.912,-6.058L-48.965,-6.058L-48.965,-6.929C-49.269,-6.929 -49.731,-6.903 -49.995,-6.85L-49.995,-0.012L-48.965,-0.012L-48.965,-5.213C-48.332,-5.886 -47.857,-5.966 -47.381,-5.966C-47.144,-5.966 -46.933,-5.939 -46.787,-5.9C-46.736,-6.23 -46.682,-6.639 -46.682,-6.969M-52.529,-0.012L-52.529,-6.942C-52.832,-6.942 -53.295,-6.903 -53.559,-6.863L-53.559,-1.359C-54.087,-1.029 -54.654,-0.817 -55.367,-0.817C-56.265,-0.817 -56.582,-1.279 -56.582,-1.992L-56.582,-6.942C-56.885,-6.942 -57.321,-6.903 -57.597,-6.863L-57.597,-1.953C-57.597,-0.369 -56.714,0.12 -55.684,0.12C-54.919,0.12 -54.284,-0.117 -53.611,-0.606L-53.559,-0.606L-53.559,-0.012L-52.529,-0.012ZM-61.161,-1.306C-61.611,-0.976 -62.297,-0.739 -62.891,-0.739C-63.684,-0.739 -64.013,-1.055 -64.013,-1.807C-64.013,-2.666 -63.684,-3.022 -62.654,-3.062L-61.161,-3.115L-61.161,-1.306ZM-59.024,-0.884L-59.789,-0.884C-60.08,-0.884 -60.171,-1.016 -60.171,-1.332L-60.171,-6.401C-60.739,-6.837 -61.743,-7.035 -62.614,-7.035C-63.287,-7.035 -63.802,-6.942 -64.396,-6.77C-64.382,-6.467 -64.33,-6.071 -64.264,-5.82C-63.881,-5.992 -63.221,-6.111 -62.641,-6.111C-62.099,-6.111 -61.479,-5.992 -61.161,-5.807L-61.161,-3.867L-62.614,-3.801C-64.238,-3.721 -65.069,-3.18 -65.069,-1.728C-65.069,-0.475 -64.251,0.12 -63.076,0.12C-62.389,0.12 -61.769,-0.065 -61.109,-0.593L-61.069,-0.593C-60.844,-0.025 -60.384,0.12 -59.829,0.12C-59.354,0.12 -59.024,-0.092 -59.024,-0.593L-59.024,-0.884ZM-65.993,-0.131C-66.006,-0.435 -66.072,-0.792 -66.151,-1.055C-66.416,-0.923 -66.837,-0.844 -67.154,-0.844C-67.841,-0.844 -68.091,-1.095 -68.091,-1.966L-68.091,-6.019L-66.429,-6.019C-66.389,-6.296 -66.362,-6.626 -66.362,-6.903L-68.091,-6.903L-68.091,-8.579C-68.382,-8.566 -68.857,-8.487 -69.108,-8.407L-69.108,-6.903L-69.953,-6.903L-69.953,-6.019L-69.108,-6.019L-69.108,-2.045C-69.108,-0.58 -68.593,0.12 -67.22,0.12C-66.851,0.12 -66.336,0.027 -65.993,-0.131M-71.312,-1.887C-71.312,-4.144 -74.586,-3.827 -74.586,-5.094C-74.586,-5.807 -74.164,-6.124 -73.411,-6.124C-72.856,-6.124 -72.184,-6.045 -71.709,-5.873C-71.629,-6.163 -71.55,-6.56 -71.55,-6.837C-72.051,-6.982 -72.711,-7.035 -73.134,-7.035C-74.507,-7.035 -75.629,-6.322 -75.629,-4.975C-75.629,-2.903 -72.395,-3.299 -72.395,-1.807C-72.395,-1.174 -72.724,-0.817 -73.583,-0.817C-74.229,-0.817 -74.942,-0.95 -75.484,-1.227C-75.602,-0.936 -75.681,-0.62 -75.761,-0.303C-75.219,-0.012 -74.454,0.12 -73.794,0.12C-72.461,0.12 -71.312,-0.501 -71.312,-1.887M-79.655,-6.216C-78.717,-6.216 -78.163,-5.715 -78.163,-4.487C-78.163,-4.395 -78.163,-4.17 -78.176,-4.052L-81.279,-4.052C-81.239,-5.596 -80.631,-6.216 -79.655,-6.216M-77.134,-4.302C-77.134,-6.058 -78.018,-7.035 -79.629,-7.035C-81.199,-7.035 -82.4,-5.952 -82.4,-3.365C-82.4,-1.016 -81.331,0.12 -79.311,0.12C-78.638,0.12 -77.78,-0.039 -77.265,-0.342C-77.319,-0.646 -77.424,-1.016 -77.542,-1.279C-77.939,-1.042 -78.651,-0.844 -79.272,-0.844C-80.829,-0.844 -81.291,-1.636 -81.291,-3.22L-81.291,-3.325L-77.173,-3.325C-77.146,-3.642 -77.134,-4.012 -77.134,-4.302M-85.37,-6.427C-85.37,-5.213 -86.044,-4.632 -87.297,-4.632L-88.472,-4.632L-88.472,-8.012C-88.102,-8.051 -87.548,-8.09 -87.152,-8.09C-86.044,-8.09 -85.37,-7.642 -85.37,-6.427M-83.549,-0.105L-84.552,-2.005C-85.054,-2.956 -85.621,-3.682 -86.096,-4.065C-84.987,-4.355 -84.248,-5.24 -84.248,-6.467C-84.248,-8.355 -85.555,-9.002 -87.113,-9.002C-87.839,-9.002 -88.604,-8.935 -89.555,-8.817L-89.555,-0.012L-88.472,-0.012L-88.472,-3.747L-87.046,-3.747C-86.558,-3.299 -86.004,-2.455 -85.489,-1.438L-84.724,0.053C-84.354,0.04 -83.892,-0 -83.549,-0.105" style="fill:black;fill-rule:nonzero;"></path>
    </g>
    <g transform="matrix(5.55556,0,0,5.55556,404.622,29.8722)">
        <path d="M0,14.309C-3.696,14.309 -6.257,12.092 -6.257,7.155C-6.257,2.693 -3.616,0 0.079,0C3.643,0 6.362,2.06 6.362,7.155C6.362,11.775 3.564,14.309 0,14.309M0.052,3.01C-1.557,3.01 -2.403,4.198 -2.403,7.155C-2.403,10.138 -1.716,11.3 0,11.3C1.689,11.3 2.56,10.165 2.56,7.155C2.56,4.225 1.716,3.01 0.052,3.01" style="fill:black;fill-rule:nonzero;"></path>
    </g>
    <g transform="matrix(5.55556,0,0,5.55556,94.7,109.367)">
        <path d="M0,-14.045L0,-4.725C0,-3.458 0.555,-3.274 1.742,-3.274C2.402,-3.274 3.3,-3.484 3.722,-3.696C3.934,-2.798 4.092,-1.689 4.198,-0.659C3.458,-0.29 1.954,0 1.188,0C-2.058,0 -3.564,-1.584 -3.564,-4.936L-3.564,-14.045L0,-14.045" style="fill:black;fill-rule:nonzero;"></path>
    </g>
</svg>
