<svg xmlns="http://www.w3.org/2000/svg" viewBox="0 0 474.68 133.89"><defs><style>.cls-1{fill:#87674e;}</style></defs><title>logo</title><g id="Ebene_2" data-name="Ebene 2"><g id="Content"><path d="M6,126.63c.05-1.79-.93-3.21-2.84-3.21-2.84,0-3.18,2.83-3.18,5.09s.11,5.38,3.2,5.38a2.54,2.54,0,0,0,2.18-1.12A3.8,3.8,0,0,0,6,130.64c0-.2,0-.41.06-.61H4.91c0,.22,0,.45-.07.68-.13,1.1-.41,2.18-1.74,2.18-2,0-2-3-1.95-4.4s0-4.07,2-4.07c1.39,0,1.78,1,1.81,2.21Z"/><path d="M21.25,124.42h0l1.3,5.34H19.93Zm-.69-.8-2.87,10h1.24l.73-2.89h3.17l.79,2.89h1.23l-2.82-10Z"/><polygon points="36.79 123.62 36.79 133.65 37.91 133.65 37.91 128.92 41.25 128.92 41.25 127.91 37.91 127.91 37.91 124.62 41.5 124.62 41.5 123.62 36.79 123.62"/><polygon points="53.55 123.62 53.55 133.65 58.6 133.65 58.6 132.65 54.66 132.65 54.66 128.94 58.33 128.94 58.33 127.94 54.66 127.94 54.66 124.62 58.57 124.62 58.57 123.62 53.55 123.62"/><path d="M86.5,129.24h1.94c1.31,0,1.71.85,1.71,1.86a9.18,9.18,0,0,0,.35,2.55h1.3v-.23c-.27,0-.35-.44-.39-.63-.11-.74-.17-1.48-.22-2.23-.15-1.34-.48-1.75-1.77-1.87v0a2.14,2.14,0,0,0,1.92-2.18c.07-2.31-1.27-2.86-3.37-2.86H85.39v10H86.5Zm0-4.62h1.57c.75,0,2.1,0,2.12,1.77a1.71,1.71,0,0,1-1.94,1.84H86.5Z"/><polygon points="104.22 123.62 104.22 133.65 109.26 133.65 109.26 132.65 105.33 132.65 105.33 128.94 109 128.94 109 127.94 105.33 127.94 105.33 124.62 109.24 124.62 109.24 123.62 104.22 123.62"/><path d="M127.21,126.25c.1-1.88-1-2.83-2.86-2.83a2.63,2.63,0,0,0-2.79,2.74,2.23,2.23,0,0,0,1.19,2.27,20.67,20.67,0,0,0,2,.78c1,.39,1.63.4,1.63,1.93a1.68,1.68,0,0,1-1.91,1.75c-1.68,0-2-.94-1.9-2.42h-1.11a5.6,5.6,0,0,0,.21,1.83,2.73,2.73,0,0,0,2.74,1.59,2.82,2.82,0,0,0,3.12-3c0-1.32-.35-2-2.25-2.7l-1.59-.6a1.32,1.32,0,0,1-1-1.36c0-.78.18-1.8,1.79-1.8a1.55,1.55,0,0,1,1.6,1.83Z"/><polygon points="139.2 123.62 139.2 124.62 141.8 124.62 141.8 133.65 142.91 133.65 142.91 124.62 145.5 124.62 145.5 123.62 139.2 123.62"/><path d="M159.48,124.42h0l1.3,5.34h-2.65Zm-.69-.8-2.87,10h1.23l.74-2.89h3.17l.79,2.89h1.23l-2.83-10Z"/><path d="M175.12,131.23c0,1.79,1.19,2.66,3,2.66s3-.87,3-2.66v-7.61H180v7.21c0,.79-.13,2.06-1.9,2.06s-1.92-1.27-1.91-2.06v-7.21h-1.1Z"/><path d="M195.29,129.24h1.94c1.31,0,1.71.85,1.71,1.86a9.18,9.18,0,0,0,.35,2.55h1.29v-.23c-.26,0-.34-.44-.38-.63-.11-.74-.18-1.48-.22-2.23-.16-1.34-.48-1.75-1.78-1.87v0a2.14,2.14,0,0,0,1.93-2.18c.07-2.31-1.27-2.86-3.37-2.86h-2.58v10h1.11Zm0-4.62h1.56c.75,0,2.1,0,2.13,1.77a1.72,1.72,0,0,1-1.94,1.84h-1.75Z"/><path d="M215.72,124.42h0l1.3,5.34H214.4Zm-.69-.8-2.87,10h1.24l.73-2.89h3.17l.79,2.89h1.23l-2.82-10Z"/><path d="M236.31,131.81c0,.37,0,.76,0,1.12h0a11.28,11.28,0,0,0-.35-1.1l-2.85-8.21H231.3v10h1.12v-8c0-.51,0-1,0-1.54h0a7.76,7.76,0,0,0,.37,1.51l2.81,8h1.82v-10h-1.11Z"/><polygon points="249.47 123.62 249.47 124.62 252.06 124.62 252.06 133.65 253.17 133.65 253.17 124.62 255.77 124.62 255.77 123.62 249.47 123.62"/><polygon points="281.14 123.62 281.14 124.62 283.74 124.62 283.74 133.65 284.85 133.65 284.85 124.62 287.44 124.62 287.44 123.62 281.14 123.62"/><polygon points="299.45 123.62 299.45 133.65 304.49 133.65 304.49 132.65 300.56 132.65 300.56 128.94 304.22 128.94 304.22 127.94 300.56 127.94 300.56 124.62 304.46 124.62 304.46 123.62 299.45 123.62"/><path d="M318.23,129.24h1.94c1.31,0,1.71.85,1.71,1.86a9.18,9.18,0,0,0,.35,2.55h1.3v-.23c-.27,0-.35-.44-.39-.63-.11-.74-.17-1.48-.22-2.23-.15-1.34-.48-1.75-1.77-1.87v0a2.14,2.14,0,0,0,1.92-2.18c.07-2.31-1.27-2.86-3.37-2.86h-2.58v10h1.11Zm0-4.62h1.56c.75,0,2.11,0,2.13,1.77a1.71,1.71,0,0,1-1.94,1.84h-1.75Z"/><path d="M337.22,129.24h1.94c1.31,0,1.72.85,1.72,1.86a9.17,9.17,0,0,0,.34,2.55h1.3v-.23c-.27,0-.35-.44-.39-.63-.1-.74-.17-1.48-.21-2.23-.16-1.34-.48-1.75-1.78-1.87v0a2.13,2.13,0,0,0,1.92-2.18c.07-2.31-1.27-2.86-3.37-2.86h-2.58v10h1.11Zm0-4.62h1.57c.75,0,2.1,0,2.12,1.77a1.71,1.71,0,0,1-1.93,1.84h-1.76Z"/><path d="M357.66,124.42h0l1.3,5.34h-2.66Zm-.7-.8-2.86,10h1.23l.74-2.89h3.17l.79,2.89h1.23l-2.83-10Z"/><path d="M378.67,126.25c.11-1.88-1-2.83-2.85-2.83a2.63,2.63,0,0,0-2.79,2.74,2.23,2.23,0,0,0,1.19,2.27,20.49,20.49,0,0,0,2,.78c1,.39,1.63.4,1.63,1.93a1.68,1.68,0,0,1-1.91,1.75c-1.67,0-1.95-.94-1.9-2.42h-1.11a5.61,5.61,0,0,0,.22,1.83,2.73,2.73,0,0,0,2.74,1.59,2.81,2.81,0,0,0,3.11-3c0-1.32-.34-2-2.24-2.7l-1.6-.6a1.31,1.31,0,0,1-.94-1.36c0-.78.17-1.8,1.79-1.8a1.54,1.54,0,0,1,1.59,1.83Z"/><path d="M396.93,126.25c.1-1.88-1-2.83-2.85-2.83a2.64,2.64,0,0,0-2.8,2.74,2.23,2.23,0,0,0,1.19,2.27c.54.28,1.42.57,2,.78,1,.39,1.63.4,1.63,1.93a1.68,1.68,0,0,1-1.91,1.75c-1.67,0-2-.94-1.9-2.42h-1.11a5.6,5.6,0,0,0,.21,1.83,2.74,2.74,0,0,0,2.75,1.59,2.82,2.82,0,0,0,3.11-3c0-1.32-.35-2-2.25-2.7l-1.59-.6a1.32,1.32,0,0,1-.95-1.36c0-.78.18-1.8,1.8-1.8a1.54,1.54,0,0,1,1.59,1.83Z"/><polygon points="409.71 123.62 409.71 133.65 414.76 133.65 414.76 132.65 410.82 132.65 410.82 128.94 414.49 128.94 414.49 127.94 410.82 127.94 410.82 124.62 414.73 124.62 414.73 123.62 409.71 123.62"/><rect class="cls-1" x="0.87" y="37.39" width="11.28" height="70.65"/><path class="cls-1" d="M28.39,48.08H39.67V37.39H28.39Zm0,60H39.67V56.89H28.39Z"/><path class="cls-1" d="M101.41,74c-1.08-12.56-11.18-18.5-23-18.5C61.53,55.5,53.12,67.57,53.12,83c0,15,8.81,26.42,24.84,26.42,13.16,0,21.38-7.32,23.45-20.58H90.13C89,96.17,84.49,100.52,78,100.52c-9.79,0-13.56-9-13.56-17.51,0-15.53,8.22-18.6,14.06-18.6,6.23,0,10.78,3.36,11.67,9.59Z"/><path class="cls-1" d="M114.26,108h11.28V77.87c0-7.53,4.85-13.46,12.37-13.46,6.63,0,9.79,3.46,10,11.48V108h11.28V72.92c0-11.48-7-17.42-18.11-17.42-6.73,0-12.56,3.46-15.33,8.12h-.2V37.39H114.26Z"/><path class="cls-1" d="M169.57,65.3h8.51V95.48c.2,8.51,2.38,13.06,14.15,13.06,2.48,0,4.85-.4,7.33-.6v-8.7a19.12,19.12,0,0,1-4.75.4c-5.05,0-5.44-2.38-5.44-7V65.3h10.19V56.89H189.37V41.55H178.08V56.89h-8.51Z"/><path d="M211.31,108.05h5.74v-9.7h.2c2.87,6.92,10,11.18,18.21,11.18,15.54,0,23-12.57,23-27s-7.41-27-23-27c-7.62,0-15,3.86-17.71,11.18h-.2V37.39h-6.24Zm40.87-25.54c0,10.59-4.85,21.77-16.72,21.77-13.26,0-17.91-11.18-17.91-21.77s4.65-21.76,17.91-21.76c11.87,0,16.72,11.18,16.72,21.76"/><rect x="271.88" y="37.39" width="6.23" height="70.65"/><path d="M293.81,47.39h6.24v-10h-6.24Zm0,60.66h6.24V57h-6.24Z"/><path d="M357.91,73c-1.39-11.68-9.8-17.52-20.69-17.52-15.63,0-24.14,12.37-24.14,27s8.51,27,24.14,27c11.38,0,19.4-7.52,21.08-19.79h-6.23c-.8,8.51-7.13,14.55-14.85,14.55-12,0-17.91-10.89-17.91-21.78s5.94-21.76,17.91-21.76c8.12,0,12.77,4.65,14.45,12.27Z"/><polygon points="370.64 108.05 376.87 108.05 376.87 88.65 386.96 80.24 407.15 108.05 414.97 108.05 391.71 75.89 413.49 56.98 405.17 56.98 376.87 81.72 376.87 37.39 370.64 37.39 370.64 108.05"/><path class="cls-1" d="M427,13.74l.28-.5a13.06,13.06,0,0,0,8.3,3,13.1,13.1,0,0,0,13.1-13.11,13.48,13.48,0,0,0-.18-2.22h.49A12.73,12.73,0,0,0,448.76,3a13.12,13.12,0,0,0,13.18,13.05,13.23,13.23,0,0,0,8.38-3c.09.15.18.3.26.45a13.22,13.22,0,0,0,.06,24.63l-.27.47a13.11,13.11,0,0,0-21.47,10.1,13.21,13.21,0,0,0,.18,2.19h-.48a13.32,13.32,0,0,0,.16-2.1,13.17,13.17,0,0,0-21.48-10.19q-.15-.24-.27-.48a13,13,0,0,0-.06-24.4m8.76,12.15a13.11,13.11,0,1,0,13.11-13.11,13.12,13.12,0,0,0-13.11,13.11"/><path class="cls-1" d="M448.79,51.77a25.89,25.89,0,1,1,25.89-25.88A25.91,25.91,0,0,1,448.79,51.77Zm0-49.11A23.23,23.23,0,1,0,472,25.89,23.26,23.26,0,0,0,448.79,2.66Z"/></g></g></svg>