<svg xmlns="http://www.w3.org/2000/svg" xmlns:xlink="http://www.w3.org/1999/xlink" id="Ebene_1" x="0px" y="0px" viewBox="0 0 784.42 276.5" style="enable-background:new 0 0 784.42 276.5;" xml:space="preserve">
<style type="text/css">
	.st0{fill:#B4A48B;}
</style>
<path class="st0" d="M541.66,5.8c2.45,11.16,12.99,24.57,19.02,33.29c4.09,5.92,7.38,13.41,12.54,17.58  c0.88,2.15,10.53,14.38,10.53,14.38l10.53,9.47c0,0,10.8,9.72,17.09,12.5c6.61,2.91,14.8,5.45,20.09,11.36  c0,0,7.94,19.49,7.72,28.07c0.34,12.22,29.96,45.26,36.49,49.47c4.66,3,38.23,28.77,38.23,28.77c3.04,1.64,48.74,35.14,53.33,39.98  c0,0,3.04,2.88,3.86,3.87c0,0,13.41,14.78,13.33,20.33c-1.87,8.2-39.31-17.07-42.8-17.53c-22.52-13.13-53.12-25.67-69.81-45.96  c-6.13-7.44-17.86-12.12-24.91-18.24c-6.02-3.91-31.57-31.58-31.57-31.58c-4.62-5.71-9.5-17.63-10.52-24.9  c-1.27-3.46-3-7.96-3.86-11.58c-1.33-6.25-12.08-12.46-14.04-12.98c-7.84-2.2-18.29-10.28-23.15-15.43  c-22.3-14.01-33.2-41.93-43.14-65.96c-1.59-3.83-24.33-6.86-30.2-7.98c-14.62-2.79-17.1,6.07-28.04,7.98  c-18.1,10.18-43.41,1.48-65.25,2.81c-10.4,4.8-25.72,9.3-33.33,18.24c-17.53,10.31-28.15,18.02-48.42,19.84  c-14.07,1.26-24.83,6.36-38.29,9.91c-10.5,2.77-20.03,2.57-30.82,1.82c-1.16-0.75-8.53-6.01-9.47-6.66c0,0-18.83-15-32.27-20  c-6.8-1.64-26.19-10.59-27.02-11.57c-1.79-1.58-4.48-6.88-6.67-8.08c-15.36,10.86-64.22,43.12-68.06,46.31  c0,0-49.85,30.18-62.09,35.44c-5.98,3.1-38.09,19.09-40.7,16.49c1.43-1.59,4.72-4.7,6.31-5.96l10.53-10.52l3.86-3.86  c5.14-3.77,38.38-16.72,44.9-21.05c0,0,52.63-27.41,64.9-37.19c0,0,31.75-21.22,32.62-22.1c7.89-4.56,21.28-18.38,30.52-19.29v2.1  l1.05,2.11c0.88,0.86,2.85,2.66,3.86,3.51c10.71,15.87,40.18,8.98,51.58,24.21c1.06,0.6,2.8,2.81,2.8,2.81  c1.06,0.59,1.86,1.1,2.8,1.75l1.05,1.05c0,0,24.01,12.3,41.04,6.67c12.5-3.63,25.05-8.93,39.2-8.86  c18.03,0.09,43.14-9.25,54.47-21.66l1.05-1.05c2.42-1.51,4.43-3.87,6.67-4.91c9.02-4.2,12.39-11.96,24.56-6.67  c19.55,0.9,48.8,5.52,63.49-9.47C501.18-7.73,525.04,5.45,541.66,5.8"></path>
<path class="st0" d="M77.54,137.48h15.67l-0.07,0.74c-0.49,0.07-1.9,0.12-3.06,1.17c-0.86,0.79-1.34,1.71-1.34,4.22  c0,0.67,0,1.29,0.06,1.9c0,1.41,0,2.7-0.06,3.98h19.46v-3.98c0-0.19,0.18-2.75-0.25-4.16c-0.49-1.71-1.9-2.51-2.45-2.76  c-0.73-0.37-1.65-0.42-1.84-0.49v-0.61h15.92l-0.06,0.8c-0.43,0-1.71-0.07-2.82,0.79c-1.16,0.92-1.34,2.39-1.41,5.27v29.93  c-0.07,1.29,0,1.9,0.06,2.45c0.43,2.34,2.08,2.94,4.16,3.31v0.62h-15.86v-0.62c1.28-0.18,2.21-0.36,3.06-1.22  c1.35-1.22,1.35-3,1.47-4.89v-21.25H88.74v21.43c0.06,1.15,0.06,2.27,0.37,3.18c0.8,2.44,3.24,2.57,4.1,2.69v0.61H77.54v-0.55  c1.16-0.24,1.9-0.36,2.82-1.28c1.29-1.35,1.29-3.18,1.35-5.09v-29.44c0-2.32-0.12-3.55-0.73-4.4c-0.99-1.41-3.13-1.65-3.43-1.72  V137.48z"></path>
<path class="st0" d="M135.87,143.66c4.34-4.53,10.83-6.97,17.13-6.97c8.51,0,14.51,4.41,16.65,6.49c1.29,1.22,2.21,2.57,3.13,4.11  c1.46,2.33,3.37,5.57,3.37,11.87c0,4.59-0.8,7.65-3.13,11.38c-0.06,0.13-1.4,2.21-2.33,3.25c-0.73,0.79-1.47,1.46-3.24,2.76  c-1.1,0.8-2.02,1.53-3.24,2.14c-3.12,1.66-8.51,2.63-12.06,2.63c-2.76,0-4.77-0.42-5.75-0.73c-5.32-1.35-10.16-4.77-13.04-9.61  c-0.92-1.59-3.43-6.42-3.43-12.24C129.87,150.88,134.03,145.56,135.87,143.66 M145.6,174.7c1.22,0.97,4.34,3.12,8.87,3.12  c1.66,0,6.06-0.36,9.43-3.86c0.98-1.04,1.71-2.14,2.39-3.49c0.67-1.4,2.08-4.46,2.08-8.69c0-6-2.57-11.63-3.3-13.04  c-0.98-1.71-2.33-3.06-2.76-3.49c-3.12-3.06-6.43-4.96-10.89-4.96c-1.9,0-6.49,0.37-10.04,4.53c-1.78,2.14-3.79,5.69-3.67,12.12  C137.77,163.74,140.15,170.47,145.6,174.7"></path>
<path class="st0" d="M221.25,149.78h-0.61c-1.11-2.82-1.96-4.53-4.41-6.3c-4.29-3-9.06-2.63-10.89-2.63v33.17  c0.05,1.9,0.12,3.73,1.53,4.9c1.29,1.04,2.81,1.04,3.25,1.04v0.73h-16.59v-0.73c0.37-0.07,2.14-0.12,3.31-1.1  c1.34-1.23,1.4-2.94,1.52-4.84l-0.06-33.17c-4.22,0.12-8.26,0.31-11.63,3.12c-2.14,1.78-2.82,3.43-3.74,5.88h-0.73l2.81-12.86  c0.56,0.31,0.8,0.43,1.35,0.55c0.43,0.07,2.2,0.07,3.98,0.07c4.84,0,9.8,0.05,14.63,0.05c1.47,0,2.93-0.05,4.34-0.05  c1.84,0,3.61,0.05,5.45,0.05c2.33,0,2.5-0.05,3.54-0.67L221.25,149.78z"></path>
<path class="st0" d="M228.23,138.03v-0.55h28.34c0.98,0.06,1.47,0.12,3-0.55c0.36,1.22,0.68,2.51,0.98,3.79  c0.37,1.71,0.68,3.43,0.98,5.08c0.3,1.41,0.67,2.76,0.98,4.11h-0.68c-0.18-0.5-0.43-0.92-0.61-1.35c-0.62-1.35-1.41-2.51-2.45-3.55  c-3.19-3.06-9.12-4.64-13.53-4.64c-2.14,0-4.77,0.24-5.63,2.43c-0.3,0.8-0.25,2.03-0.25,2.21v4.53h6.98c1.77,0,3.36,0.06,4.47-1.23  c0.86-1.04,0.98-2.32,1.03-2.69h0.43l2.7,14.69l-0.49-0.06c-1.04-2.45-2.14-5.14-4.65-6.48c-2.01-1.17-5.26-1.23-10.47-1.17v18.73  c0,1.71,0,3.12,0.98,4.34c1.04,1.35,2.82,1.9,6.49,1.9c1.95,0,7.04-0.24,11.56-3.61c1.35-1.04,2.27-2.02,2.75-2.51  c2.45-2.64,3.18-3.74,4.71-6.74c0.18,0,0.31,0,0.49,0.3l-5.57,16.35c-0.73-0.49-1.1-0.68-2.02-0.68c-0.98,0-1.9,0-2.75-0.06h-27.79  v-0.67c0.86-0.18,1.34-0.31,1.71-0.49c2.32-1.1,2.32-3.43,2.39-5.63v-27.3c0-1.35,0-2.68-0.06-4.04c0-0.79-0.06-2.93-2.32-3.85  c-0.5-0.25-0.68-0.25-1.54-0.37L228.23,138.03z"></path>
<path class="st0" d="M276.39,137.48h15.68v0.68c-1.11,0.12-1.66,0.24-2.15,0.49c-2.27,1.04-2.27,3.61-2.32,5.87v27.67  c-0.06,1.4-0.12,2.57,0.8,3.79c0.98,1.29,2.45,1.53,3.97,1.53c4.16,0,7.59-1.41,8.82-2.01c1.65-0.93,3.06-2.15,3.49-2.51  c0.43-0.31,1.47-1.1,2.5-2.26c1.54-1.78,2.7-3.98,3.79-6h0.8c-0.55,1.47-1.11,3-1.59,4.53c-0.67,1.96-1.29,3.92-1.96,5.87  c-0.68,2.09-1.35,4.1-2.02,6.18c-0.67-0.42-1.04-0.73-2.51-0.73h-4.1c-1.16-0.06-2.39-0.06-3.61-0.06h-19.52v-0.55  c0.92-0.18,1.9-0.43,2.63-1.1c1.16-0.92,1.35-2.21,1.47-5.08v-29.81c0-1.17,0.06-3.18-0.67-4.22c-0.92-1.35-3.36-1.6-3.49-1.66  V137.48z"></path>
<path class="st0" d="M39.34,218.11l3.95-16.65c0.29,0.14,0.59,0.35,0.95,0.43c1.45,0.59,2.77,0.3,4.38,0.3  c1.61,0,3.21,0.14,4.89,0.14c2.27,0,4.46-0.07,6.72-0.14c2.33-0.07,4.6-0.07,6.87-0.07c3.94,0,7.81,0.07,11.68,0.14  c-4.38,6.94-8.77,13.88-13.15,20.75c-5.63,8.91-11.33,17.76-16.95,26.52c1.61,0.37,2.42,0.51,4.24,0.51c1.46,0,2.93-0.08,4.31-0.23  c2.77-0.21,11.62-0.87,17.9-7.45c2.48-2.55,4.46-6.21,4.97-6.94l0.73,0.3c-1.53,3.58-3,7.16-4.38,10.74  c-1.02,2.63-1.9,5.34-2.92,7.97c0,0-1.02-0.51-1.53-0.65c-0.95-0.23-2.56-0.15-5.11-0.15c-5.93,0-11.69-0.08-17.68-0.08H36.57  c1.9-3.35,4.01-6.64,6.13-10c2.2-3.43,4.54-6.87,6.73-10.3c2.78-4.3,5.48-8.69,8.26-13.07c2.91-4.68,5.99-9.28,8.98-13.95  c-1.75-0.15-3.51-0.3-5.33-0.3c-1.39,0-4.9,0.07-8.55,1.02c-1.68,0.37-5.63,1.39-8.91,5.12c-1.54,1.83-2.71,4.17-3.73,6.29  L39.34,218.11z"></path>
<path class="st0" d="M113.86,202.92c-0.88,0.13-1.53,0.29-2.34,0.57c-3.65,1.39-4.02,4.53-4.23,8.04  c-0.22,4.59-0.44,9.12-0.73,13.58c-0.07,2.34-0.22,4.67-0.29,7.01c-0.07,1.97-0.07,4.02-0.07,6c0,1.24-0.15,5.26,2.62,8.1  c2.56,2.56,6.94,3.81,10.45,3.81c0.81,0,1.9,0,3.51-0.37c0.88-0.14,7.09-1.75,9.28-6.28c1.09-2.27,1.09-4.68,1.09-7.16  c-0.22-8.19-0.51-16.3-0.95-24.33v-0.51c-0.44-4.38-1.1-5.77-2.86-7.08c-1.24-0.88-2.41-1.17-3.87-1.46v-0.66h16.37v0.74  c-0.87,0.21-2.33,0.29-3.43,1.97c-1.24,1.82-1.17,4.09-1.09,6.42l0.88,23.46v3.14c-0.14,2.19-0.43,7.3-4.9,11.55  c-2.63,2.48-7.16,5.11-15.49,5.11c-2.26,0-7.09-0.15-12.35-2.56c-1.75-0.81-2.35-1.17-3.14-1.76c-0.51-0.36-1.83-1.39-2.78-2.92  c-1.98-3.07-2.04-5.92-2.04-9.5l1.25-27.03c0.14-2.48,0.21-4.75-1.47-6.35c-1.31-1.31-2.92-1.39-3.5-1.52v-0.67h20.09V202.92z"></path>
<path class="st0" d="M199.26,215.19h-0.73c-2.64-4.31-3.88-5.33-6.29-6.87c-1.53-0.95-5.19-3.08-10.3-3.08  c-8.11,0-12.56,4.39-14.32,7.17c-1.39,1.97-2.99,5.61-2.99,11.75c0,2.64,0.28,10.08,4.68,16.36c1.97,2.86,7.59,9.66,17.82,9.66  c0.88,0,4.09,0,6.36-1.98c0.66-0.58,1.24-1.31,1.54-2.18c0.51-1.39,0.36-3.51,0.36-3.88v-15.56c0-2.27,0.07-4.39-1.46-5.85  c-1.24-1.16-3.21-1.46-3.58-1.53v-0.66h17.17v0.81c-1.46,0.22-2.11,0.51-2.63,1.02c-0.95,1.02-1.02,2.41-1.1,5.12v21.33  c0,1.83,0.08,2.78,0.3,3.66c0.73,2.19,3.07,2.42,3.51,2.48v0.66l-22.87,0.29c-1.68-0.08-3.36-0.22-5.04-0.44  c-2.91-0.36-9.42-1.24-15.48-6.79c-8.11-7.45-9.06-17.47-9.06-21.34c0-8.18,3.73-13.8,5.63-16.07c0.72-0.88,1.89-1.97,4.08-3.44  c5.12-3.21,10.02-4.46,16.08-4.46c1.09,0,4.31,0.08,7.67,0.59c2.26,0.29,2.92,0.59,4.23,0.59c1.97,0,3.07-0.95,3.73-1.54  L199.26,215.19z"></path>
<path class="st0" d="M259.53,217.23h-0.66c-0.73-1.76-1.9-4.53-5.41-7.45c-1.61-1.31-5.92-4.39-11.91-4.39  c-0.95,0-4.81,0.08-7.52,2.27c-0.44,0.36-2.12,1.82-2.12,3.88c0,1.23,0.73,2.26,1.03,2.55c1.39,1.82,3.44,2.25,7.74,3.58  c9.57,2.98,15.2,4.38,18.85,7.23c1.82,1.39,5.11,4.83,5.11,11.03c0,7.02-4.24,11.54-5.92,13.08c-5.63,5.1-13.81,5.62-15.93,5.62  c-2.7,0-5.84-0.66-8.62-1.31c-1.32-0.37-3.8-1.17-5.26-1.17c-0.95,0-1.54,0.14-2.78,1.24c-0.95-3.72-1.9-7.37-2.77-11.11  c-0.66-2.85-1.18-5.69-1.76-8.54h0.66c1.38,3.43,2.26,5.11,3.21,6.64c1.75,2.84,7.15,9.65,16.8,9.65c1.75,0,8.62-0.37,12.64-5.33  c0.59-0.81,2.04-2.78,2.04-5.77c0-3.59-2.55-5.86-3.44-6.51c-2.04-1.68-4.52-2.34-9.56-3.95c-1.97-0.58-4.01-1.24-5.99-1.83  c-5.04-1.53-11.1-3-13.3-8.69c-0.43-1.24-0.65-2.56-0.65-3.95c0-1.46,0.36-4.97,3.21-7.81c0.95-0.88,2.27-1.76,3.36-2.34  c1.9-0.94,5.48-2.55,10.96-2.55c1.1,0,3.15,0,5.63,0.57c2.04,0.37,4.02,1.04,6.21,1.04c1.38,0,2.04-0.45,3.07-1.25L259.53,217.23z"></path>
<path class="st0" d="M277.2,202.18h29.96c3.87,0.14,7.24,0.37,9.5,3.65c0.59,0.81,1.46,2.41,1.46,4.82c0,1.39-0.37,4.31-2.78,7.08  c-0.51,0.66-1.32,1.39-2.77,2.49c-4.09,3.14-6.65,4.16-11.33,5.99c-1.24,0.44-2.41,0.88-3.73,1.31c-2.19,0.67-4.46,1.32-6.79,1.98  v15.99c0.07,2.56,0.07,4.75,1.97,6.21c1.24,0.96,2.93,1.1,3.44,1.18v0.73h-19.07v-0.81c0.51-0.07,2.92-0.37,4.09-2.19  c0.95-1.38,0.95-4.01,1.03-5.7v-34.77c0.22-3.14-0.08-4.39-1.1-5.48c-1.16-1.24-2.48-1.46-3.87-1.68V202.18z M290.72,225.85  c2.26-0.66,7.74-1.97,13.51-5.84c3-2.05,4.02-3.73,4.61-5.34c0.5-1.31,0.58-2.25,0.58-2.77c0-0.59-0.07-1.82-0.95-3.14  c-1.24-1.9-3.43-2.49-5.7-2.85c-0.29-0.07-2.42-0.36-3.95-0.36c-2.11,0-6.22,0.36-7.45,2.12c-0.73,1.09-0.73,2.85-0.73,4.31  L290.72,225.85z"></path>
<path class="st0" d="M328.5,202.26h18.62v0.8c-0.59,0.08-2.63,0.08-3.95,1.54c-1.17,1.31-1.1,3.36-1.1,5.27v35.72  c0.08,1.68,0.15,3.95,1.1,5.34c0.95,1.31,2.41,1.67,3.95,2.04v0.66h-18.49v-0.66c1.24-0.22,2.27-0.51,3.22-1.46  c1.61-1.53,1.68-3.79,1.68-6.13v-35.72c0-0.22,0-2.04-0.29-3.28c-0.37-1.9-1.61-2.71-4.75-3.29V202.26z"></path>
<path class="st0" d="M403.3,216.87h-0.73c-1.31-3.36-2.33-5.41-5.26-7.52c-5.11-3.58-10.81-3.14-13-3.14v39.59  c0.07,2.27,0.15,4.46,1.83,5.84c1.53,1.25,3.36,1.25,3.87,1.25v0.88h-19.8v-0.88c0.44-0.08,2.56-0.15,3.95-1.33  c1.6-1.46,1.68-3.5,1.82-5.77l-0.07-39.59c-5.04,0.14-9.86,0.37-13.88,3.72c-2.56,2.12-3.36,4.09-4.45,7.02h-0.88l3.36-15.35  c0.66,0.36,0.95,0.51,1.61,0.66c0.51,0.07,2.63,0.07,4.75,0.07c5.76,0,11.68,0.08,17.46,0.08c1.75,0,3.5-0.08,5.18-0.08  c2.2,0,4.32,0.08,6.51,0.08c2.77,0,2.99-0.08,4.24-0.81L403.3,216.87z"></path>
<path class="st0" d="M414.33,218.11l3.94-16.65c0.3,0.14,0.59,0.35,0.96,0.43c1.46,0.59,2.78,0.3,4.38,0.3  c1.61,0,3.21,0.14,4.89,0.14c2.27,0,4.45-0.07,6.72-0.14c2.35-0.07,4.6-0.07,6.87-0.07c3.95,0,7.82,0.07,11.69,0.14  c-4.38,6.94-8.76,13.88-13.15,20.75c-5.62,8.91-11.33,17.76-16.95,26.52c1.6,0.37,2.41,0.51,4.24,0.51c1.45,0,2.91-0.08,4.3-0.23  c2.77-0.21,11.61-0.87,17.89-7.45c2.48-2.55,4.45-6.21,4.97-6.94l0.73,0.3c-1.54,3.58-2.99,7.16-4.38,10.74  c-1.03,2.63-1.9,5.34-2.92,7.97c0,0-1.03-0.51-1.54-0.65c-0.95-0.23-2.55-0.15-5.12-0.15c-5.92,0-11.69-0.08-17.68-0.08h-12.63  c1.9-3.35,4.02-6.64,6.14-10c2.18-3.43,4.52-6.87,6.71-10.3c2.79-4.3,5.49-8.69,8.26-13.07c2.92-4.68,5.99-9.28,8.98-13.95  c-1.75-0.15-3.51-0.3-5.34-0.3c-1.38,0-4.88,0.07-8.55,1.02c-1.67,0.37-5.62,1.39-8.91,5.12c-1.54,1.83-2.71,4.17-3.72,6.29  L414.33,218.11z"></path>
<path class="st0" d="M469.12,202.84v-0.66h33.82c1.17,0.07,1.75,0.14,3.57-0.65c0.44,1.46,0.8,2.99,1.18,4.52  c0.43,2.05,0.8,4.1,1.17,6.07c0.37,1.68,0.81,3.29,1.16,4.89h-0.8c-0.23-0.59-0.51-1.09-0.73-1.61c-0.73-1.6-1.68-2.99-2.93-4.24  c-3.79-3.65-10.88-5.55-16.14-5.55c-2.55,0-5.7,0.29-6.72,2.92c-0.36,0.95-0.29,2.41-0.29,2.63v5.4h8.33c2.12,0,4.03,0.08,5.34-1.46  c1.02-1.24,1.17-2.77,1.24-3.21h0.52l3.21,17.52l-0.59-0.07c-1.24-2.92-2.56-6.13-5.55-7.74c-2.41-1.39-6.28-1.46-12.49-1.39v22.35  c0,2.05,0,3.72,1.16,5.18c1.25,1.61,3.36,2.27,7.75,2.27c2.34,0,8.4-0.29,13.8-4.32c1.61-1.24,2.7-2.41,3.28-2.99  c2.93-3.14,3.81-4.45,5.64-8.03c0.21,0,0.36,0,0.59,0.37l-6.66,19.51c-0.87-0.59-1.31-0.8-2.41-0.8c-1.16,0-2.26,0-3.28-0.08h-33.17  v-0.8c1.02-0.22,1.6-0.37,2.04-0.59c2.78-1.31,2.78-4.09,2.84-6.72v-32.59c0-1.6,0-3.21-0.07-4.82c0-0.95-0.08-3.5-2.78-4.61  c-0.59-0.29-0.81-0.29-1.82-0.43L469.12,202.84z"></path>
<path class="st0" d="M424.84,152.76c1.49,4.16,2.97,8.33,4.45,12.48c4.53,0.09,9.06,0.17,13.6,0.26h-0.26  c-3.53,2.65-7.07,5.32-10.6,7.96c1.45,4.38,2.88,8.75,4.32,13.13c-3.88-2.66-7.76-5.32-11.63-7.98c-3.76,2.66-7.5,5.32-11.25,7.98  c1.44-4.38,2.88-8.75,4.32-13.13c-3.62-2.65-7.24-5.31-10.85-7.96v-0.14h13.6C421.96,161.17,423.4,156.96,424.84,152.76"></path>
<path class="st0" d="M337.5,152.76c1.49,4.16,2.97,8.33,4.45,12.48c4.54,0.09,9.07,0.17,13.6,0.26h-0.26  c-3.53,2.65-7.07,5.32-10.6,7.96c1.45,4.38,2.88,8.75,4.32,13.13c-3.88-2.66-7.76-5.32-11.64-7.98c-3.75,2.66-7.49,5.32-11.25,7.98  c1.44-4.38,2.88-8.75,4.32-13.13c-3.62-2.65-7.24-5.31-10.86-7.96v-0.14h13.6C334.62,161.17,336.06,156.96,337.5,152.76"></path>
<path class="st0" d="M380.36,152.76c1.48,4.16,2.96,8.33,4.44,12.48c4.53,0.09,9.07,0.17,13.6,0.26h-0.26  c-3.53,2.65-7.07,5.32-10.6,7.96c1.44,4.38,2.88,8.75,4.32,13.13c-3.88-2.66-7.76-5.32-11.64-7.98c-3.75,2.66-7.5,5.32-11.25,7.98  c1.44-4.38,2.88-8.75,4.32-13.13c-3.62-2.65-7.24-5.31-10.86-7.96v-0.14h13.6C377.48,161.17,378.92,156.96,380.36,152.76"></path>
<path class="st0" d="M466.09,152.76c1.48,4.16,2.95,8.33,4.45,12.48c4.54,0.09,9.07,0.17,13.6,0.26h-0.26  c-3.54,2.65-7.06,5.32-10.6,7.96c1.44,4.38,2.89,8.75,4.31,13.13c-3.87-2.66-7.75-5.32-11.62-7.98c-3.75,2.66-7.5,5.32-11.26,7.98  c1.44-4.38,2.88-8.75,4.32-13.13c-3.62-2.65-7.25-5.31-10.86-7.96v-0.14h13.6C463.21,161.17,464.64,156.96,466.09,152.76"></path>
<path class="st0" d="M509.69,152.6c-1.44,4.2-2.88,8.4-4.32,12.61h-13.6v0.13c0.51,0.38,1.02,0.75,1.53,1.12  c0.33,0.24,0.66,0.49,0.98,0.73c2.79,2.04,5.56,4.09,8.35,6.13c-1.44,4.38-2.88,8.75-4.31,13.12c0.54-0.38,1.07-0.76,1.61-1.14  c0.37-0.25,0.73-0.52,1.09-0.79c2.85-2.01,5.69-4.03,8.54-6.05c2.98,2.04,5.98,4.09,8.96,6.14c0.35,0.24,0.7,0.49,1.05,0.73  c0.55,0.37,1.09,0.74,1.63,1.11c-1.44-4.37-2.87-8.75-4.33-13.12c2.69-2.01,5.37-4.03,8.06-6.05c0.38-0.28,0.76-0.57,1.14-0.86  c0.48-0.35,0.93-0.7,1.41-1.05h0.26c-4.54-0.08-9.07-0.17-13.6-0.26C512.65,160.93,511.18,156.76,509.69,152.6 M497.62,167.18h7.75  h1.41l0.46-1.34l2.16-6.3l0.33-0.96c0.2,0.55,0.39,1.11,0.59,1.67c0.64,1.83,1.3,3.66,1.95,5.49l0.45,1.29l1.37,0.03  c2.54,0.04,5.08,0.1,7.62,0.14c-1.99,1.51-4.02,3.02-6.02,4.54l-1.13,0.85l0.44,1.35c0.83,2.53,1.66,5.05,2.49,7.58l-0.59-0.41  c-2.08-1.42-4.16-2.84-6.24-4.27l-1.13-0.78l-1.13,0.79c-2.11,1.5-4.23,3-6.36,4.51c0.82-2.47,1.63-4.95,2.45-7.42l0.45-1.37  l-1.16-0.84C501.73,170.21,499.68,168.7,497.62,167.18"></path>
</svg>